<?xml version="1.0" encoding="UTF-8"?><svg id="Layer_1" xmlns="http://www.w3.org/2000/svg" viewBox="0 0 106.18 106.32"><defs><style>.cls-1{fill:#ffd310;}.cls-1,.cls-2,.cls-3{stroke:#1d1d1b;stroke-miterlimit:10;}.cls-2{fill:#e7295d;}.cls-3{fill:#1d1d1b;}</style></defs><rect class="cls-2" x="5.06" y="5.19" width="100.62" height="100.62" rx="7.42" ry="7.42"/><rect class="cls-1" x=".5" y=".5" width="100.62" height="100.62" rx="8.5" ry="8.5"/><path class="cls-3" d="m31.65,33.28v34.8h-8.48v-34.8h8.48Z"/><path class="cls-3" d="m38.12,67.16c-.94-.88-1.41-1.96-1.41-3.25s.47-2.43,1.41-3.32c.94-.89,2.16-1.34,3.64-1.34s2.65.45,3.59,1.34c.94.89,1.41,2,1.41,3.32s-.47,2.37-1.41,3.25c-.94.88-2.14,1.31-3.59,1.31s-2.7-.44-3.64-1.31Z"/><path class="cls-3" d="m59.24,66.15c-2.73-1.52-4.89-3.64-6.49-6.37-1.6-2.73-2.4-5.79-2.4-9.2s.8-6.46,2.4-9.17c1.6-2.71,3.77-4.83,6.49-6.35,2.73-1.52,5.73-2.28,9-2.28s6.27.76,9,2.28c2.73,1.52,4.87,3.64,6.44,6.35,1.57,2.71,2.35,5.77,2.35,9.17s-.79,6.47-2.38,9.2c-1.59,2.73-3.74,4.85-6.44,6.37-2.71,1.52-5.7,2.28-8.97,2.28s-6.27-.76-9-2.28Zm15.67-8.23c1.67-1.85,2.5-4.3,2.5-7.34s-.83-5.53-2.5-7.36c-1.67-1.83-3.89-2.75-6.67-2.75s-5.05.91-6.72,2.73c-1.67,1.82-2.5,4.28-2.5,7.39s.83,5.53,2.5,7.36c1.67,1.83,3.91,2.75,6.72,2.75s5-.92,6.67-2.78Z"/></svg>